<mxfile host="app.diagrams.net" modified="2023-06-14T03:39:27.805Z" agent="Mozilla/5.0 (Windows NT 6.1; Win64; x64) AppleWebKit/537.36 (KHTML, like Gecko) Chrome/76.0.3809.100 Safari/537.36" version="21.3.8" etag="NORRkW94EC5olaxd9oAh" type="github">
  <diagram name="Halaman-1" id="HOvxHdizdLHg_QSn6qhK">
    <mxGraphModel>
      <root>
        <mxCell id="0" />
        <mxCell id="1" parent="0" />
      </root>
    </mxGraphModel>
  </diagram>
</mxfile>
